<svg id="OBJECTS" xmlns="http://www.w3.org/2000/svg" viewBox="0 0 750 476.74"><defs><style>.cls-1{fill:#fff;}.cls-2{fill:#ede0c3;}.cls-3{fill:#cebfa1;}.cls-4{fill:#b0967e;}.cls-5{fill:#221b22;}.cls-6{fill:#564c54;}.cls-7{fill:#f77659;}.cls-8{fill:#e33d15;}.cls-9{fill:#f0f0f0;}.cls-10{fill:#ebb12b;}.cls-11{fill:#d38400;}.cls-12{fill:#4b71f8;}.cls-13{fill:#995113;}.cls-14{fill:#3639d9;}.cls-15{opacity:0.5;}.cls-16{fill:#6c370d;}.cls-17{opacity:0.8;}</style></defs><title>HomePage</title><rect class="cls-1" width="750" height="476.74"/><ellipse class="cls-2" cx="513.56" cy="427.54" rx="194.04" ry="8.81"/><path class="cls-3" d="M445.2,297.51c11.95-11.54,36.35,10.31,50.53,25.22C502.24,329.57,506.6,335,506.6,335c2.18,2.09,4,4,5.63,5.69.86.94,1.62,1.81,2.3,2.62l-20,7.92c-6.24-3.73-13-7.84-17.37-10.75C458.46,328,433.91,308.42,445.2,297.51Z" transform="translate(0 -11.63)"/><path class="cls-4" d="M464.27,312.41a1,1,0,0,1,1.35-.16c1.3,1,27.19,21.27,41.24,34.05l-2,.79c-14.33-12.9-40.12-33.08-40.43-33.33A1,1,0,0,1,464.27,312.41Z" transform="translate(0 -11.63)"/><path class="cls-2" d="M500.13,310.92c1.12,2.8,2,5.3,2.76,7.51.56,1.71,1,3.22,1.33,4.57l-15.81,6.26c-5-7.15-13.1-18.72-17.35-25.53-11.88-19.07-26.13-47.05-11.34-52.3,15.66-5.56,28.83,24.42,35.57,43.86C498.39,304.22,500.13,310.92,500.13,310.92Z" transform="translate(0 -11.63)"/><path class="cls-3" d="M495.67,326.38c-6.52-16.42-25-51.81-25.16-52.2a1,1,0,0,1,.41-1.3,1,1,0,0,1,1.29.41c.84,1.59,18.74,36,25.25,52.38Z" transform="translate(0 -11.63)"/><path class="cls-3" d="M656.87,260.26s70.61-22.52,61.91-49.06C709.19,182,669.68,226.16,656.87,260.26Z" transform="translate(0 -11.63)"/><path class="cls-4" d="M649.83,267.14c15.92-18.28,41.92-39.89,42.24-40.15a.59.59,0,1,1,.75.9c-.32.27-26.5,22-42.3,40.24Z" transform="translate(0 -11.63)"/><path class="cls-2" d="M663.5,239.43s-2-86.52,32.75-78.39C722.85,167.26,698.88,216.06,663.5,239.43Z" transform="translate(0 -11.63)"/><path class="cls-3" d="M649.24,270.58c13.48-30.16,35.79-79.07,36.06-79.65a.58.58,0,0,1,.78-.29.59.59,0,0,1,.29.78c-.27.58-22.9,50.19-36.34,80.29Z" transform="translate(0 -11.63)"/><path class="cls-3" d="M643.42,399.18c14.63-20.42,28.37-44.15,36-59.94,9.92-20.63,13.58-37,10.88-48.66a1.43,1.43,0,1,0-2.79.64c4.71,20.38-11.7,58.86-47.61,107.92Z" transform="translate(0 -11.63)"/><path class="cls-2" d="M686.69,320.11s10.22,6.31,20.61-12.09C707.3,308,688.92,302.8,686.69,320.11Z" transform="translate(0 -11.63)"/><path class="cls-2" d="M681.83,329.87s6.86-9.85-10.92-21.24C670.91,308.63,664.67,326.68,681.83,329.87Z" transform="translate(0 -11.63)"/><path class="cls-2" d="M689.62,299.87s9.76-7-3.21-23.67C686.41,276.2,674.51,291.14,689.62,299.87Z" transform="translate(0 -11.63)"/><path class="cls-2" d="M672.64,349.81s7.48,9.39,23.48-4.41C696.12,345.4,680.6,334.27,672.64,349.81Z" transform="translate(0 -11.63)"/><path class="cls-2" d="M666.18,359s8.47-8.51-7.08-22.81C659.1,336.19,649.84,352.89,666.18,359Z" transform="translate(0 -11.63)"/><path class="cls-2" d="M658.59,372.47s7.3,9.53,23.55-4C682.14,368.51,666.83,357.09,658.59,372.47Z" transform="translate(0 -11.63)"/><path class="cls-2" d="M652.71,382.86s-11.85-1.9-7.7-22.61C645,360.25,662.34,368.3,652.71,382.86Z" transform="translate(0 -11.63)"/><path class="cls-5" d="M667.12,126.34V424.78a16.93,16.93,0,0,1-16.93,16.94H501.57a16.93,16.93,0,0,1-16.94-16.94V126.34a16.93,16.93,0,0,1,16.94-16.94H650.19a16.92,16.92,0,0,1,16.93,16.94Z" transform="translate(0 -11.63)"/><path class="cls-6" d="M483.36,151.46h1.27a0,0,0,0,1,0,0v39.43a0,0,0,0,1,0,0h-1.27a4.93,4.93,0,0,1-4.93-4.93V156.39A4.93,4.93,0,0,1,483.36,151.46Z"/><path class="cls-6" d="M671.15,160.09h1a0,0,0,0,1,0,0V192.2a0,0,0,0,1,0,0h-1a4,4,0,0,1-4-4v-24A4,4,0,0,1,671.15,160.09Z" transform="translate(1339.31 340.67) rotate(180)"/><path class="cls-6" d="M483.36,196.24h1.27a0,0,0,0,1,0,0v39.43a0,0,0,0,1,0,0h-1.27a4.93,4.93,0,0,1-4.93-4.93V201.17A4.93,4.93,0,0,1,483.36,196.24Z"/><path class="cls-1" d="M658.67,125.31V425.8a7.46,7.46,0,0,1-7.46,7.47H500.54a7.44,7.44,0,0,1-7.46-7.47V125.31a7.47,7.47,0,0,1,7.46-7.46H651.21a7.43,7.43,0,0,1,7.46,7.46Z" transform="translate(0 -11.63)"/><path class="cls-2" d="M646.2,268.12H509a1,1,0,0,0-1,1h0a1,1,0,0,0,1,1H646.2a1,1,0,0,0,1-1h0A1,1,0,0,0,646.2,268.12Z" transform="translate(0 -11.63)"/><path class="cls-2" d="M646.2,276.37H509a1,1,0,0,0-1,1h0a1,1,0,0,0,1,1H646.2a1,1,0,0,0,1-1h0A1,1,0,0,0,646.2,276.37Z" transform="translate(0 -11.63)"/><path class="cls-2" d="M646.2,166.56H580.39a1,1,0,0,1-1-1h0a1,1,0,0,1,1-1H646.2a1,1,0,0,1,1,1h0A1,1,0,0,1,646.2,166.56Z" transform="translate(0 -11.63)"/><path class="cls-2" d="M646.2,174.82H580.39a1,1,0,0,1-1-1h0a1,1,0,0,1,1-1H646.2a1,1,0,0,1,1,1h0A1,1,0,0,1,646.2,174.82Z" transform="translate(0 -11.63)"/><path class="cls-2" d="M646.2,183.07H580.39a1,1,0,0,1-1-1h0a1,1,0,0,1,1-1H646.2a1,1,0,0,1,1,1h0A1,1,0,0,1,646.2,183.07Z" transform="translate(0 -11.63)"/><path class="cls-2" d="M646.2,191.33H580.39a1,1,0,0,1-1-1h0a1,1,0,0,1,1-1H646.2a1,1,0,0,1,1,1h0A1,1,0,0,1,646.2,191.33Z" transform="translate(0 -11.63)"/><path class="cls-2" d="M646.2,199.59H580.39a1,1,0,0,1-1-1h0a1,1,0,0,1,1-1H646.2a1,1,0,0,1,1,1h0A1,1,0,0,1,646.2,199.59Z" transform="translate(0 -11.63)"/><path class="cls-2" d="M646.2,207.84H580.39a1,1,0,0,1-1-1h0a1,1,0,0,1,1-1H646.2a1,1,0,0,1,1,1h0A1,1,0,0,1,646.2,207.84Z" transform="translate(0 -11.63)"/><rect class="cls-7" x="568.85" y="340.99" width="55.59" height="42.22" transform="translate(1193.29 712.58) rotate(180)"/><rect class="cls-7" x="567.01" y="338.88" width="59.27" height="7.02" transform="translate(1193.29 673.16) rotate(180)"/><rect class="cls-8" x="568.85" y="345.91" width="55.59" height="3.86" transform="translate(1193.29 684.05) rotate(180)"/><rect class="cls-1" x="594.21" y="338.88" width="4.87" height="44.37" transform="translate(1193.29 710.51) rotate(180)"/><rect class="cls-9" x="594.21" y="337.89" width="4.87" height="33.74"/><rect class="cls-2" x="594.21" y="334.28" width="4.87" height="3.86"/><rect class="cls-10" x="533.26" y="297.8" width="55.59" height="42.22" transform="translate(1203.78 365.47) rotate(155.56)"/><rect class="cls-10" x="523.26" y="297.46" width="59.27" height="7.02" transform="translate(1180.77 334.57) rotate(155.56)"/><rect class="cls-11" x="527.35" y="303.99" width="55.59" height="3.86" transform="translate(1187.13 343.1) rotate(155.56)"/><rect class="cls-1" x="558.19" y="295.78" width="4.87" height="44.37" transform="translate(1202.57 363.84) rotate(155.56)"/><rect class="cls-9" x="560.39" y="305.94" width="4.87" height="33.74" transform="translate(-83.13 250.17) rotate(-24.44)"/><rect class="cls-2" x="552.71" y="303.99" width="4.87" height="3.86" transform="translate(-76.83 245.49) rotate(-24.44)"/><circle class="cls-5" cx="605.02" cy="402.37" r="7.41"/><circle class="cls-6" cx="605.02" cy="402.37" r="4.63"/><path class="cls-5" d="M557.16,414a7.41,7.41,0,1,0,7.41-7.41A7.41,7.41,0,0,0,557.16,414Z" transform="translate(0 -11.63)"/><path class="cls-6" d="M564.57,418.63a4.63,4.63,0,1,0-4.63-4.63A4.63,4.63,0,0,0,564.57,418.63Z" transform="translate(0 -11.63)"/><path class="cls-5" d="M637.42,318.29a1.88,1.88,0,0,0-1.42-.65H526.74L525,311.28a1.91,1.91,0,0,0-1.84-1.4H511.35v3.81h10.37l1.68,6.17a1.36,1.36,0,0,0,0,.17l3.42,12.27h0l.52,1.89,4.31,15.47,1,3.77,4.17,15,1.05,3.77,3.75,13.48a1,1,0,0,0,.09.24h0L545,397.5a14.09,14.09,0,0,0,13.53,10.27h57.63a1.89,1.89,0,0,0,0-3.77H558.56a10.3,10.3,0,0,1-9.9-7.52L546,387h80.84a1.89,1.89,0,0,0,1.87-1.62l1.84-13.24.53-3.77,2.08-15,.53-3.77,2.21-15.89a1.9,1.9,0,0,0,.26-.95,1.86,1.86,0,0,0-.06-.48l1.75-12.56A1.88,1.88,0,0,0,637.42,318.29Zm-12.2,65H545L542.4,374l-.09-.25h0l-.44-1.58h84.9Zm2.07-14.86H540.82l-4.17-15h92.73Zm2.61-18.73H535.6l-4.17-15H632Zm2.61-18.73H530.38l-2.65-9.52H633.84Z" transform="translate(0 -11.63)"/><path class="cls-6" d="M499.81,311.78h0a1.91,1.91,0,0,0,1.91,1.91h13.12v-3.81H501.72A1.91,1.91,0,0,0,499.81,311.78Z" transform="translate(0 -11.63)"/><rect class="cls-2" x="508.02" y="149.8" width="62.21" height="49.01" rx="9.04"/><path class="cls-7" d="M512,199.28l49.26-.22a6.78,6.78,0,0,0,.63-2.73c.29-4.17-1.06-10.82-1.73-15-.08-.49-.15-.94-.21-1.36a14.66,14.66,0,0,1-.15-1.71c0-3.42-3-2.82-3-2.82-5,4.91-10.64-2.4-13.93,0,0,0-1.41,1-5.31,4.56s-10.54,5.89-16.19,8.28c-7.29,3.09-9.35,6.15-9.75,8.25A3.87,3.87,0,0,0,512,199.28Z" transform="translate(0 -11.63)"/><path class="cls-8" d="M512,199.28l49.26-.22a6.78,6.78,0,0,0,.63-2.73l-50.31.21A3.87,3.87,0,0,0,512,199.28Z" transform="translate(0 -11.63)"/><path class="cls-1" d="M542.14,177.55s-.89-2.15-2.85-1.46-1.74,3.92-1.74,3.92S538.74,182.94,542.14,177.55Z" transform="translate(0 -11.63)"/><path class="cls-1" d="M542.78,187.23a.82.82,0,0,0,.81-.82,10.34,10.34,0,0,0-3.22-7.63.81.81,0,1,0-1,1.24,8.68,8.68,0,0,1,2.64,6.4A.82.82,0,0,0,542.78,187.23Z" transform="translate(0 -11.63)"/><path class="cls-1" d="M532.52,180.9a.82.82,0,0,0,.53-.21c1-.92,4.06-1.11,5.72-1a.82.82,0,0,0,.86-.77.81.81,0,0,0-.76-.86c-.51,0-5-.25-6.9,1.42a.82.82,0,0,0,.55,1.42Z" transform="translate(0 -11.63)"/><path class="cls-1" d="M539.67,180.28l.34-1.73h0l-.84-.84c.46-.46,4.56-4.46,8-4.48h.07a3.49,3.49,0,0,1,2.55,1.08,2.52,2.52,0,0,1,.6,2.63c-.54,1.56-2.48,2.75-5.06,3.12a28.69,28.69,0,0,1-3.92.31A10.71,10.71,0,0,1,539.67,180.28Zm1.15-1.66a24.48,24.48,0,0,0,4.28-.3c2.15-.3,3.37-1.2,3.64-1.95a.76.76,0,0,0-.21-.83,1.74,1.74,0,0,0-1.3-.54h0C545.13,175,542.17,177.36,540.82,178.62Z" transform="translate(0 -11.63)"/><path class="cls-1" d="M538.32,179.51l.75-1.6c-1.63-.76-3.18-2.77-3.09-4,0-.29.15-.66.91-.88a1,1,0,0,1,1,.1c.85.66,1.13,2.88,1.1,4.12l1.76,0c0-.42,0-4.14-1.78-5.55a2.72,2.72,0,0,0-2.53-.4,2.68,2.68,0,0,0-2.17,2.44C534.06,176,536.25,178.54,538.32,179.51Z" transform="translate(0 -11.63)"/><path class="cls-8" d="M556.26,199.09h1.47A10.82,10.82,0,0,1,555,191.2a13.93,13.93,0,0,1,5.15-9.88c-.08-.49-.15-.94-.21-1.36a15.09,15.09,0,0,0-6.11,11.19A12,12,0,0,0,556.26,199.09Z" transform="translate(0 -11.63)"/><path class="cls-1" d="M538.4,182.91a.81.81,0,0,0,.19-1.6l-3.08-.75a.81.81,0,0,0-.39,1.58l3.08.75A.68.68,0,0,0,538.4,182.91Z" transform="translate(0 -11.63)"/><path class="cls-1" d="M535.33,184.72a.82.82,0,0,0,.78-.62.8.8,0,0,0-.59-1l-3.08-.76a.82.82,0,0,0-1,.6.8.8,0,0,0,.59,1l3.08.75A.69.69,0,0,0,535.33,184.72Z" transform="translate(0 -11.63)"/><path class="cls-1" d="M532.26,186.45a.81.81,0,0,0,.19-1.6l-3.08-.75a.81.81,0,0,0-.39,1.57l3.08.76Z" transform="translate(0 -11.63)"/><path class="cls-1" d="M528.91,188.05a.81.81,0,0,0,.19-1.6L526,185.7a.81.81,0,1,0-.38,1.58l3.08.75A.62.62,0,0,0,528.91,188.05Z" transform="translate(0 -11.63)"/><path class="cls-1" d="M525.28,189.43a.82.82,0,0,0,.19-1.61l-3.08-.75a.82.82,0,0,0-1,.6.8.8,0,0,0,.59,1l3.08.75A.69.69,0,0,0,525.28,189.43Z" transform="translate(0 -11.63)"/><polygon class="cls-10" points="527.79 232.7 522.62 235.41 523.61 229.66 519.43 225.58 525.21 224.74 527.79 219.51 530.37 224.74 536.15 225.58 531.97 229.66 532.96 235.41 527.79 232.7"/><polygon class="cls-10" points="554.16 232.7 548.99 235.41 549.98 229.66 545.79 225.58 551.57 224.74 554.16 219.51 556.74 224.74 562.52 225.58 558.34 229.66 559.33 235.41 554.16 232.7"/><polygon class="cls-10" points="580.53 232.7 575.36 235.41 576.34 229.66 572.16 225.58 577.94 224.74 580.53 219.51 583.11 224.74 588.89 225.58 584.71 229.66 585.69 235.41 580.53 232.7"/><polygon class="cls-10" points="606.89 232.7 601.73 235.41 602.71 229.66 598.53 225.58 604.31 224.74 606.89 219.51 609.48 224.74 615.26 225.58 611.08 229.66 612.06 235.41 606.89 232.7"/><polygon class="cls-2" points="631.84 232.7 626.67 235.41 627.65 229.66 623.47 225.58 629.25 224.74 631.84 219.51 634.42 224.74 640.2 225.58 636.02 229.66 637 235.41 631.84 232.7"/><path class="cls-2" d="M631.57,254.7H522.73a15.62,15.62,0,1,1,0-31.23H631.57a15.62,15.62,0,0,1,0,31.23ZM522.73,225a14.09,14.09,0,1,0,0,28.18H631.57a14.09,14.09,0,0,0,0-28.18Z" transform="translate(0 -11.63)"/><path class="cls-2" d="M658.67,125.31v15.84H493.08V125.31a7.47,7.47,0,0,1,7.46-7.46H651.21a7.43,7.43,0,0,1,7.46,7.46Z" transform="translate(0 -11.63)"/><rect class="cls-5" x="524.66" y="103.97" width="102.44" height="17.18" rx="6.83"/><rect class="cls-6" x="540.92" y="109.32" width="61.39" height="4.22" rx="1.68"/><path class="cls-6" d="M617.27,122.92a2.53,2.53,0,1,1-2.53-2.53A2.53,2.53,0,0,1,617.27,122.92Z" transform="translate(0 -11.63)"/><path class="cls-12" d="M659.9,180.93,673.54,212a4,4,0,0,0,5.25,2.05l31.08-13.64a4,4,0,0,0,2-5.25l-13.64-31.08A4,4,0,0,0,693,162L662,175.67A4,4,0,0,0,659.9,180.93Zm20.73-6a2.06,2.06,0,1,1,.82-2A2.06,2.06,0,0,1,680.63,174.93Z" transform="translate(0 -11.63)"/><path class="cls-1" d="M671.77,188.79c-1.5-3.42-.15-6.34,2.77-7.62s6-.29,7.48,3.12.15,6.34-2.77,7.62S673.28,192.23,671.77,188.79ZM686,176.48l4.66-2-4.71,25.05-4.66,2ZM678.11,186c-.81-1.85-1.66-2.13-2.26-1.87s-1,1.09-.17,2.93,1.66,2.13,2.27,1.87S678.92,187.86,678.11,186Zm11.78,5.67c-1.5-3.42-.15-6.34,2.77-7.62s6-.29,7.48,3.13.15,6.33-2.77,7.61S691.4,195.12,689.89,191.68Zm6.34-2.78c-.81-1.84-1.66-2.13-2.27-1.86s-1,1.08-.16,2.92,1.66,2.14,2.27,1.87S697,190.75,696.23,188.9Z" transform="translate(0 -11.63)"/><path class="cls-7" d="M681.86,157.79c-2.1-9.86-7.43-21.08-14.28-30l-.43-.55V129c7.11,9.46,11.91,20.49,13.72,29a30.94,30.94,0,0,1,.77,9,9,9,0,0,1-1.38,4.35,3.84,3.84,0,0,1-1,1,3.71,3.71,0,0,1-1.89.6,2.06,2.06,0,0,0,.1,1,4.63,4.63,0,0,0,2.35-.78,4.93,4.93,0,0,0,1.2-1.17,10.34,10.34,0,0,0,1.63-5.43A33.25,33.25,0,0,0,681.86,157.79Zm-14.71,9.14C656.71,154,642,116,639.51,109.4l-.06-.14.66.14h3.71a36.18,36.18,0,0,0-5.07-1.29.5.5,0,0,0-.55.67c0,.1.12.31.23.62,2.2,5.85,17.77,46.57,28.72,59.08a16.46,16.46,0,0,0,2.92,2.71l.85.55,1.13-.5c-.46-.26-.93-.56-1.41-.88A17.07,17.07,0,0,1,667.15,166.93Z" transform="translate(0 -11.63)"/><polygon class="cls-13" points="376.19 381.35 371 385.71 377.01 395.16 382.2 390.8 376.19 381.35"/><path class="cls-10" d="M376.49,439,354.6,404.53a5.71,5.71,0,0,1,1.62-1.67c2.77-2.07,8-4.1,11.23-5.5l1-.47a12.41,12.41,0,0,0,1.26-.66,2.08,2.08,0,0,1,3.33.86c-1.2,5.65,6.43,6.34,6.21,9.71,0,0-.08,1.44-.8,5.74s.61,10,1.48,15c1.11,6.46-.1,9.27-1.39,10.48A3.17,3.17,0,0,1,376.49,439Z" transform="translate(0 -11.63)"/><path class="cls-11" d="M376.49,439,354.6,404.53a5.71,5.71,0,0,1,1.62-1.67L378.58,438A3.17,3.17,0,0,1,376.49,439Z" transform="translate(0 -11.63)"/><path class="cls-1" d="M378.16,408.24s1.89-.34,2.28,1.33-1.95,3-1.95,3S375.92,413,378.16,408.24Z" transform="translate(0 -11.63)"/><path class="cls-1" d="M371.12,412.13a.68.68,0,0,1,.21-.93,8.6,8.6,0,0,1,6.76-1.17.67.67,0,1,1-.39,1.28,7.29,7.29,0,0,0-5.65,1A.68.68,0,0,1,371.12,412.13Z" transform="translate(0 -11.63)"/><path class="cls-1" d="M380.13,416.45a.7.7,0,0,1-.1-.47c.18-1.13-1-3.32-1.86-4.43a.68.68,0,0,1,.15-.94.67.67,0,0,1,.94.14c.25.34,2.43,3.4,2.1,5.44a.67.67,0,0,1-.77.56A.68.68,0,0,1,380.13,416.45Z" transform="translate(0 -11.63)"/><path class="cls-1" d="M376.5,410a24.81,24.81,0,0,1-1.53-2.87c-.9-2-.94-3.85-.09-4.92a2.09,2.09,0,0,1,2.1-.76,2.86,2.86,0,0,1,1.89,1.3l0,0c1.51,2.38.56,7,.45,7.55l-1-.21,0,0-1.05,1A8.32,8.32,0,0,1,376.5,410Zm1.17-6.42,0,0a1.4,1.4,0,0,0-.95-.67.64.64,0,0,0-.68.23c-.4.52-.48,1.77.27,3.41a20.91,20.91,0,0,0,1.71,3.11C378.27,408.14,378.59,405,377.67,403.59Z" transform="translate(0 -11.63)"/><path class="cls-1" d="M378.5,411.78l.78-1.23c1.25.79,3.35,1,4.16.36.19-.15.39-.4.2-1-.13-.44-.33-.56-.5-.62-.83-.3-2.51.5-3.36,1.07l-.82-1.2c.29-.2,2.88-1.89,4.67-1.24a2.51,2.51,0,0,1,.68,4.18C382.88,413.16,380.1,412.79,378.5,411.78Z" transform="translate(0 -11.63)"/><path class="cls-11" d="M356.83,408l-.65-1a9,9,0,0,0,6.69-1.66,11.51,11.51,0,0,0,4.58-8l1-.47a12.52,12.52,0,0,1-5.06,9.26A9.9,9.9,0,0,1,356.83,408Z" transform="translate(0 -11.63)"/><path class="cls-1" d="M376.09,413.25a.66.66,0,0,1,.08-.82.68.68,0,0,1,.95,0l1.9,1.81a.67.67,0,0,1-.92,1l-1.91-1.81A1.13,1.13,0,0,1,376.09,413.25Z" transform="translate(0 -11.63)"/><path class="cls-1" d="M376.21,416.19a.67.67,0,0,1,1-.84l1.9,1.81a.67.67,0,0,1-.93,1l-1.9-1.81A.64.64,0,0,1,376.21,416.19Z" transform="translate(0 -11.63)"/><path class="cls-1" d="M376.37,419.11a.68.68,0,0,1,1-.85l1.9,1.81a.67.67,0,0,1,0,.95.68.68,0,0,1-.95,0l-1.9-1.82A.63.63,0,0,1,376.37,419.11Z" transform="translate(0 -11.63)"/><path class="cls-1" d="M376.75,422.16a.68.68,0,0,1,.08-.82.69.69,0,0,1,1,0l1.9,1.81a.67.67,0,0,1,0,.95.68.68,0,0,1-.95,0l-1.9-1.81Z" transform="translate(0 -11.63)"/><path class="cls-1" d="M377.42,425.3a.68.68,0,0,1,.08-.82.67.67,0,0,1,.95,0l1.91,1.81a.67.67,0,0,1-.93,1l-1.9-1.81A.69.69,0,0,1,377.42,425.3Z" transform="translate(0 -11.63)"/><path class="cls-12" d="M439,331.7l0,.23-.59,1.09a446.19,446.19,0,0,1-29,46.27c-2.1,2.89-4.26,5.75-6.45,8.54-1,1.22-2,2.43-2.93,3.61a51,51,0,0,1-11.9,11c-.44.29-.87.56-1.32.84-.84.51-1.72,1-2.62,1.53l-1.32.71s-6.56-6.9-9.62-13.59c0,0,.86-1.39,2.23-3.66l.87-1.42c.92-1.53,2-3.33,3.18-5.3,5.29-8.83,12.42-20.95,15.07-26.58,1.95-4.11,4.26-8.68,6.85-13.17.49-.86,1-1.71,1.51-2.56,0-.1.11-.19.17-.29a80.9,80.9,0,0,1,11.59-15.4l-9.39-55.38-.59-3.48,20.75-7.33,1.19-.41,4.94-1.75s.39,1.82,1,4.95c.07.38.15.78.23,1.19C435.62,275.56,441.77,311.08,439,331.7Z" transform="translate(0 -11.63)"/><path class="cls-14" d="M388.14,402.44c-.44.29-.87.56-1.32.84l-8-10.64-.75-1-2.55-3.38.87-1.42,2.5,3.31.74,1Z" transform="translate(0 -11.63)"/><path class="cls-14" d="M439,331.7l0,.23-.59,1.09a25.83,25.83,0,0,1-8.54-3.35.7.7,0,0,1,.77-1.17A24.71,24.71,0,0,0,439,331.7Z" transform="translate(0 -11.63)"/><path class="cls-14" d="M420.15,325.49c-.1.1-10.51,10.45-40.55,65.65q-.41.74-.81,1.5l-.75-1,.82-1.49c27.87-51.18,38.56-63.44,40.28-65.24-2.45-9.05-9.95-55.41-10.27-57.41a.56.56,0,0,1,1.11-.18c.07.5,8,49.44,10.32,57.6A.56.56,0,0,1,420.15,325.49Z" transform="translate(0 -11.63)"/><path class="cls-14" d="M409.42,379.29c-3,4.16-6.16,8.26-9.37,12.15-.58-8.49-2.15-36.55,1.41-49.64a19,19,0,0,1,1.51-4l.17,1.14Z" transform="translate(0 -11.63)"/><path class="cls-12" d="M370.56,241.62s-1.56,14.82,1.81,23.07,47,4,58.13-3.42c4.56-3-5.15-31.15-5.15-31.15Z" transform="translate(0 -11.63)"/><path class="cls-14" d="M432.87,261.34a12.4,12.4,0,0,1-1.93-.49,13.33,13.33,0,0,1-2.87-1.39,15.43,15.43,0,0,1-2.57-2.09c-4.81-4.86-6.22-12.19-6.29-12.55a.56.56,0,1,1,1.1-.21c0,.09,1.49,7.72,6.38,12.34a13.89,13.89,0,0,0,2,1.57,11.64,11.64,0,0,0,2.74,1.3,12.15,12.15,0,0,0,1.22.33C432.71,260.53,432.79,260.93,432.87,261.34Z" transform="translate(0 -11.63)"/><path class="cls-14" d="M405.94,265.49a.54.54,0,0,1-.53.56h0a.55.55,0,0,1-.59-.51c-.09-2-.21-4.1-.34-6.17,0-.37-.05-.73-.08-1.1-.44-6.77-1-13.41-1.42-18.11,0-.38-.06-.75-.1-1.1-.09-1-.18-1.94-.25-2.72l1.11-.18c.07.78.16,1.7.25,2.74,0,.35.07.72.1,1.1.42,4.65,1,11.24,1.42,18,0,.38.05.75.07,1.12C405.72,261.24,405.84,263.39,405.94,265.49Z" transform="translate(0 -11.63)"/><path class="cls-14" d="M407.54,258.34a15.25,15.25,0,0,1-2,.75c-.35.11-.72.2-1.1.28a7.7,7.7,0,0,1-1.06.14,4,4,0,0,1-1.88-.3,2.29,2.29,0,0,1-1.28-1.71c-.41-2.09-1.26-10.71-1.84-16.81,0-.38-.07-.75-.1-1.1l-.24-2.62,1.11-.14c.07.76.15,1.66.25,2.65,0,.35.06.72.1,1.09.58,6.09,1.43,14.7,1.82,16.73a1.19,1.19,0,0,0,.68.94,3.82,3.82,0,0,0,2.36,0,9.5,9.5,0,0,0,1.11-.3,11.64,11.64,0,0,0,1.53-.6.57.57,0,0,1,.75.25A.52.52,0,0,1,407.54,258.34Z" transform="translate(0 -11.63)"/><polygon class="cls-13" points="388.82 401.06 389.93 409.84 401.13 409.84 401.78 400.6 388.82 401.06"/><path class="cls-12" d="M403,260.46V411.24l-.17,2.38H386.17c-.18-1.08-.58-2.84-1.1-5.1-.12-.5-.24-1-.37-1.55-2.16-9.22-5.88-25-6.53-38.61-.94-19.52-.67-44.81-.67-44.81-1.9-14.5-4.88-45.92-6.36-62,0-.38-.07-.75-.11-1.12-.49-5.4-.8-8.8-.8-8.8,2.68-1.12,7.53-.35,12.7,1.11.37.11.75.21,1.12.33A154.9,154.9,0,0,1,403,260.46Z" transform="translate(0 -11.63)"/><path class="cls-14" d="M403,407v1.55h-17.9c-.12-.5-.24-1-.37-1.55Z" transform="translate(0 -11.63)"/><path class="cls-14" d="M403,326.94v1.44a26.46,26.46,0,0,1-6.26.65,52.15,52.15,0,0,1-7.46-.58.7.7,0,0,1-.57-.81.69.69,0,0,1,.8-.57C389.56,327.08,397.71,328.41,403,326.94Z" transform="translate(0 -11.63)"/><path class="cls-14" d="M387.85,408.52h-1.14c-.09-.48-.19-1-.29-1.55-1.47-7.81-4.16-22.41-5.56-31.89-1.95-13.23-1-49.92-1-51.35-1.48-12.62-4.49-55.83-4.52-56.27a.56.56,0,0,1,1.12-.08c0,.44,3.05,43.72,4.52,56.26,0,0,0,.05,0,.08,0,.38-1,37.86,1,51.2,1.41,9.54,4.13,24.3,5.59,32.05C387.66,407.52,387.76,408,387.85,408.52Z" transform="translate(0 -11.63)"/><path class="cls-10" d="M405.4,436.44c0,.11,0,.2,0,.3,0,.45,0,.85-.05,1.2,0,.76-.1,1.23-.1,1.23H380a14.63,14.63,0,0,1,0-2.43c.17-2.58,1-6.65,4.51-9.34,4.77-3.69,2.93-2.92,3.91-4.61.11-.18,1-3,1.06-3.24.82-1.74,1.58-2.57,6.1-2.57,6,0,6.52,2.91,7.16,4.44a27.64,27.64,0,0,1,1,3.57c.15.64.3,1.32.45,2,.37,1.74.72,3.56.95,5A26.19,26.19,0,0,1,405.4,436.44Z" transform="translate(0 -11.63)"/><path class="cls-11" d="M405.4,436.44c0,.11,0,.2,0,.3,0,.45,0,.85-.05,1.2a7.08,7.08,0,0,1-2.62-3.4c-1.56-4.26.84-9.36.94-9.58l0,0c.15.64.3,1.32.45,2-.57,1.74-1.22,4.66-.31,7.13A5.79,5.79,0,0,0,405.4,436.44Z" transform="translate(0 -11.63)"/><path class="cls-11" d="M405.39,436.74c0,1.44-.15,2.43-.15,2.43H380a14.63,14.63,0,0,1,0-2.43Z" transform="translate(0 -11.63)"/><path class="cls-1" d="M392.89,420.68a.73.73,0,0,1-.29-.07c-.64-.29-6.27-2.9-6.71-5.64a2.28,2.28,0,0,1,.8-2.1,2.09,2.09,0,0,1,2.05-.57c2.55.67,4.48,6.31,4.84,7.44a.69.69,0,0,1-.21.75A.71.71,0,0,1,392.89,420.68Zm-4.68-7a.8.8,0,0,0-.54.27.85.85,0,0,0-.36.82c.19,1.15,2.33,2.67,4.29,3.75-.89-2.2-2.19-4.54-3.23-4.81A.76.76,0,0,0,388.21,413.66Z" transform="translate(0 -11.63)"/><path class="cls-1" d="M394.12,420.68a.73.73,0,0,1-.69-.94c.36-1.13,2.29-6.77,4.84-7.44a2.09,2.09,0,0,1,2.05.57,2.26,2.26,0,0,1,.8,2.1c-.44,2.74-6.07,5.35-6.71,5.64A.73.73,0,0,1,394.12,420.68Zm4.68-7a.76.76,0,0,0-.16,0c-1,.27-2.33,2.61-3.22,4.81,1.95-1.08,4.09-2.6,4.28-3.75a.86.86,0,0,0-.35-.82A.81.81,0,0,0,398.8,413.66Z" transform="translate(0 -11.63)"/><path class="cls-1" d="M393.48,418.57s-1.17-.55-1.26,1.06c-.08,1.3.85,1.59,1.23,1.37a1.09,1.09,0,0,0,1.2-.4C395.05,420,394.79,417.93,393.48,418.57Z" transform="translate(0 -11.63)"/><path class="cls-1" d="M388.32,423a.7.7,0,0,1-.43-.15.72.72,0,0,1-.15-1,6.15,6.15,0,0,1,5.92-2.36.72.72,0,0,1,.56.85.7.7,0,0,1-.84.56,4.69,4.69,0,0,0-4.48,1.81A.72.72,0,0,1,388.32,423Z" transform="translate(0 -11.63)"/><path class="cls-1" d="M399.35,423.7a.74.74,0,0,1-.66-.42c-1.16-2.57-5.23-3.19-5.28-3.19a.72.72,0,0,1,.21-1.43c.2,0,4.9.75,6.38,4a.72.72,0,0,1-.35,1A.8.8,0,0,1,399.35,423.7Z" transform="translate(0 -11.63)"/><path class="cls-1" d="M396.38,424.85l-.18,0a12.3,12.3,0,0,0-5.85-.12.73.73,0,0,1-.89-.51.72.72,0,0,1,.5-.88,13.83,13.83,0,0,1,6.6.11.72.72,0,0,1,.52.88A.74.74,0,0,1,396.38,424.85Z" transform="translate(0 -11.63)"/><path class="cls-1" d="M395.3,427.13l-.18,0a12.47,12.47,0,0,0-5.85-.12.73.73,0,0,1-.89-.51.72.72,0,0,1,.51-.88,13.77,13.77,0,0,1,6.59.11.72.72,0,0,1,.52.88A.74.74,0,0,1,395.3,427.13Z" transform="translate(0 -11.63)"/><path class="cls-1" d="M394,429.72l-.18,0a12.49,12.49,0,0,0-5.85-.12.72.72,0,0,1-.38-1.39,13.85,13.85,0,0,1,6.59.12.71.71,0,0,1,.52.87A.72.72,0,0,1,394,429.72Z" transform="translate(0 -11.63)"/><path class="cls-14" d="M387.15,244.82a29.49,29.49,0,0,1-3.1,8.25,18.2,18.2,0,0,1-5.76,6.39,13.06,13.06,0,0,1-7.16,2.09c0-.38-.06-.76-.1-1.12a12.09,12.09,0,0,0,6.65-1.91,16.71,16.71,0,0,0,5.25-5.78,28.78,28.78,0,0,0,3.12-8.13.57.57,0,0,1,.65-.45A.58.58,0,0,1,387.15,244.82Z" transform="translate(0 -11.63)"/><path class="cls-10" d="M461.74,192.12c.05,2.65-2.91,6.25-7.1,9.92l-.87.75a110.3,110.3,0,0,1-15.64,10.77c-4.91,2.81-11.76,6-18.25,6.82-6.12.79-11.92-.5-15.44-6.12a19.17,19.17,0,0,1-1.12-2c-5.73-12-2.35-32.33-2.35-32.33L415.52,154c10.31,9.28,7.67,33.31,11.44,36.08l.2.13a3.68,3.68,0,0,0,1.66.5c4.14.34,11.43-4,18.76-5.9l1.19-.29,1.12-.23C456.43,183.11,461.65,186.47,461.74,192.12Z" transform="translate(0 -11.63)"/><path class="cls-11" d="M454.64,202l-.87.75a19.75,19.75,0,0,1-5.84-11.66,31.87,31.87,0,0,1-.35-6.29l1.19-.29a30.23,30.23,0,0,0,.31,6.43A18.41,18.41,0,0,0,454.64,202Z" transform="translate(0 -11.63)"/><path class="cls-11" d="M428.82,190.74c-2.68,1.79-6.34,4.62-8.05,7.61a.58.58,0,0,1-.5.29.6.6,0,0,1-.29-.08.59.59,0,0,1-.22-.79,22.81,22.81,0,0,1,5.79-6.12,36,36,0,0,0-4.9,1.38.52.52,0,0,1-.21,0,.58.58,0,0,1-.54-.38.59.59,0,0,1,.34-.75,32.58,32.58,0,0,1,6.92-1.7A3.68,3.68,0,0,0,428.82,190.74Z" transform="translate(0 -11.63)"/><path class="cls-11" d="M419.88,220.38c-6.12.79-11.92-.5-15.44-6.12a19.17,19.17,0,0,1-1.12-2c2.12-.71,6.41-1.38,11.81,1.81C418.64,216.1,419.74,218.43,419.88,220.38Z" transform="translate(0 -11.63)"/><path class="cls-13" d="M473.13,173s-5.26,18.08-14.8,20.27l-4.42-5.56S463.1,174,473.13,173Z" transform="translate(0 -11.63)"/><path class="cls-6" d="M453.68,192.24l.73.42a1,1,0,0,0,1.19-.13c3.06-2.73,17.9-16,20.43-18.65a1,1,0,0,0,.26-.92L474,162a1.07,1.07,0,0,0-.44-.64l-1-.67,2.37,11.77Z" transform="translate(0 -11.63)"/><path class="cls-5" d="M453.61,192.08,451,181.28a1.88,1.88,0,0,1,.64-1.53L471.73,161c.46-.42.91-.42,1,0l2.63,10.8a1.86,1.86,0,0,1-.64,1.53l-20.11,18.74C454.17,192.5,453.71,192.5,453.61,192.08Z" transform="translate(0 -11.63)"/><path class="cls-6" d="M457.21,186.92l-1.91-7.85a1.89,1.89,0,0,1,.63-1.54l14.92-13.89c.45-.42.9-.42,1,0l1.91,7.86a1.89,1.89,0,0,1-.64,1.53l-14.91,13.89C457.76,187.34,457.31,187.34,457.21,186.92Z" transform="translate(0 -11.63)"/><path class="cls-6" d="M454.53,186.05c-.7.65-1.4.65-1.56,0a2.87,2.87,0,0,1,1-2.36c.7-.65,1.4-.65,1.56,0A2.87,2.87,0,0,1,454.53,186.05Z" transform="translate(0 -11.63)"/><path class="cls-13" d="M455.27,176.65s-1.81-4.14.86-6.18,8.19-2.56,8.19-2.56c2.15,1.69-1.48,3.65-6.05,5.64Z" transform="translate(0 -11.63)"/><path class="cls-13" d="M464.16,184.85s2.79,1.26,3.71-.32-.74-5.57-1.42-6.93-1.4,2.09-1.07,3.65a11.6,11.6,0,0,1,.13,2.38Z" transform="translate(0 -11.63)"/><path class="cls-13" d="M467.92,180.93s2.95,1.22,4-.66-.88-6.61-1.69-8.23-1.79,2.52-1.27,4.33a3,3,0,0,1-.09,2.62Z" transform="translate(0 -11.63)"/><path class="cls-13" d="M470,179s2.61,1.07,3.57-.59-.78-5.84-1.49-7.26-1.59,2.22-1.12,3.82a2.69,2.69,0,0,1-.08,2.32Z" transform="translate(0 -11.63)"/><path class="cls-13" d="M465.89,183.81s2.94,1.22,4-.66-.89-6.62-1.69-8.23-1.8,2.52-1.27,4.33a3,3,0,0,1-.09,2.62Z" transform="translate(0 -11.63)"/><path class="cls-1" d="M369.82,254.6l-1.38,8.45s16,3.57,26.05,1,34.38-5,38.54-5.17l-2.67-11.24S399.18,257.44,369.82,254.6Z" transform="translate(0 -11.63)"/><path class="cls-11" d="M404,148.71s5.94-12.07-6.67-18.76c-8.82-4.69-25.85-5.54-31.05,5.18-4.84,10,6,18.35,6,18.35S395.58,158.46,404,148.71Z" transform="translate(0 -11.63)"/><path class="cls-5" d="M383.45,134.74s-10.9,1.48-6.95,7.3c2.09,3.07,13.9,4.75,13.9,4.75S392.72,136.14,383.45,134.74Z" transform="translate(0 -11.63)"/><path class="cls-10" d="M429.1,244.65s-40.38,13.56-57.77,6.79c0,0-5.46-1.7-7.65-12.38-.07-.35-.14-.71-.2-1.08-.92-5.28-1.06-12.6.47-22.69,1.84-12.1-.7-18.28-1.8-30.34,0-.42-.07-.85-.11-1.29-.12-1.31-.22-2.68-.33-4.14-1.18-15.91-6.24-22.71,1.69-27.43a117.78,117.78,0,0,1,18.32-8.35s8.85,2.81,15.08,0c0,0,9.49,4.65,16.78,7.31s4.9,21.92,7.19,33,6.2,19.86,9.72,38.22C433.7,239.05,429.1,244.65,429.1,244.65Z" transform="translate(0 -11.63)"/><path class="cls-11" d="M430.05,220.62a.58.58,0,0,1-.58-.54c-.34-4.63-3.86-16.38-6-23.4-.41-1.36-.77-2.54-1-3.42-1.53-5.26-3.26-17.62-3.33-18.14a.58.58,0,1,1,1.15-.16c0,.12,1.79,12.8,3.3,18,.25.87.6,2.05,1,3.41,2.12,7.06,5.66,18.89,6,23.65a.59.59,0,0,1-.54.62Z" transform="translate(0 -11.63)"/><path class="cls-11" d="M431.14,239.05s1.72,5.28-.71,8.83c0,0-36.28,12.59-60.61,6.72,0,0-2.19-2.64-2.8-8.06C367,246.54,396.28,253.82,431.14,239.05Z" transform="translate(0 -11.63)"/><path class="cls-11" d="M393.61,160.7a9.45,9.45,0,0,0,8.85-6.09.42.42,0,0,0-.27-.55.44.44,0,0,0-.56.27h0a8.44,8.44,0,0,1-8.69,5.47c-6.87-.43-15.71-5-15.79-5a.44.44,0,0,0-.6.18.45.45,0,0,0,.19.6c.37.19,9.08,4.67,16.14,5.11C393.13,160.7,393.38,160.7,393.61,160.7Z" transform="translate(0 -11.63)"/><path class="cls-11" d="M417.79,212.94s4.67,14.27,3,22.2c0,0-15.35,9.15-38.23,4.55,0,0-1.28-14.11-2.18-23.19C380.34,216.5,403.7,212.72,417.79,212.94Z" transform="translate(0 -11.63)"/><path class="cls-1" d="M391,223.91a.32.32,0,0,0,.33-.31c1.41-30.49-7.12-76.23-7.2-76.69a.33.33,0,0,0-.39-.26.32.32,0,0,0-.26.38c.09.46,8.6,46.12,7.19,76.54a.34.34,0,0,0,.32.34Z" transform="translate(0 -11.63)"/><path class="cls-1" d="M411.36,221.86h0a.34.34,0,0,0,.32-.34c-1.11-36.82-13.61-74.39-13.74-74.77a.33.33,0,0,0-.42-.21.34.34,0,0,0-.21.42c.13.38,12.6,37.86,13.71,74.58A.32.32,0,0,0,411.36,221.86Z" transform="translate(0 -11.63)"/><path class="cls-5" d="M409.53,149.14s2.37,22.94-6.58,38.61c-12,20.94-39,27.54-39,27.54a14.19,14.19,0,0,1,.07-8.44s25-4.65,35.49-25.57c8.52-17,4.47-34,4.47-34S407.66,147.27,409.53,149.14Z" transform="translate(0 -11.63)"/><path class="cls-5" d="M388.71,206.68l.47,0a19.87,19.87,0,0,0,2.3-.32c.41-.08.81-.18,1.21-.29a18.8,18.8,0,0,0,1.8-.57c.43-.15.85-.32,1.27-.5a25.08,25.08,0,0,0,13-13.58c.17-.43.32-.86.46-1.3a19.62,19.62,0,0,0,.61-2.37c.09-.4.15-.81.21-1.21.09-.73.15-1.45.17-2.18v-.47c0-7.44-10.76-11.89-10.76-11.89l-2.87,5-.66,1.15-5.13,9-8.48,5.53-1.1.72-5,3.28S381.27,207.08,388.71,206.68Z" transform="translate(0 -11.63)"/><g class="cls-15"><path class="cls-6" d="M391.48,206.33c.41-.08.81-.18,1.21-.29-2.06-5.6-6.78-10.39-10.35-13.4l-1.1.72C384.69,196.24,389.43,200.94,391.48,206.33Z" transform="translate(0 -11.63)"/></g><g class="cls-15"><path class="cls-6" d="M400.33,182.72c3.28,2.9,6.49,4.57,9.53,5,.09-.4.15-.81.21-1.21-5.49-.76-10.54-5.92-13.46-9.51l-.66,1.15A40.77,40.77,0,0,0,400.33,182.72Z" transform="translate(0 -11.63)"/></g><path class="cls-6" d="M399.48,172s8.57,4.49,3.64,12-13.44,16.66-18.67,17.2-8.29-4.45-8.29-4.45Z" transform="translate(0 -11.63)"/><g class="cls-15"><path class="cls-6" d="M394.49,205.47c.43-.15.85-.32,1.27-.5a14.18,14.18,0,0,1,3.48-8.95,14.72,14.72,0,0,1,9.55-4.63c.17-.43.32-.86.46-1.3a16.06,16.06,0,0,0-10.93,5.13A15.4,15.4,0,0,0,394.49,205.47Z" transform="translate(0 -11.63)"/></g><path class="cls-13" d="M396.44,142l-.84,3.84c-.53.26-1.1.38-1.57.65-8.12,4.63-14.39-1.95-14.27-2.36l3.54-14.94,11.57,11.28Z" transform="translate(0 -11.63)"/><path class="cls-5" d="M396.46,141.91l-.86,4a12.14,12.14,0,0,1-1.57.65c-5.18-3.49-8-10.35-8-10.35l8.85,4.33Z" transform="translate(0 -11.63)"/><path class="cls-5" d="M381.16,114.5s-4-3.09-2.07-6.8a5.1,5.1,0,0,1,5.88-2.54s.07-4.07,3.46-5.23,5.47,2,5.47,2,1.54-3.92,5-3.48a3.7,3.7,0,0,1,3.35,3.76s3.3-2.85,6.88-.56.88,5.54.88,5.54a3.07,3.07,0,0,1,2,4.25c-.63,1.75-3.42,2.61-3.42,2.61Z" transform="translate(0 -11.63)"/><path class="cls-5" d="M383,113.37a3.9,3.9,0,0,0-4,2.76c-1.31,3.25.9,4.93.9,4.93a4.2,4.2,0,0,0-1.23,4.54,2.85,2.85,0,0,0,3.63,1.72s-2.91,2.59-.83,4.87,6-2.69,6-2.69Z" transform="translate(0 -11.63)"/><path class="cls-5" d="M405.36,110.61s9.07,3.28,3,9C408.32,119.59,404.59,113.1,405.36,110.61Z" transform="translate(0 -11.63)"/><path class="cls-5" d="M405.81,117.17s3-.41,3.86,2a3.05,3.05,0,0,1-1.47,3.65,3.85,3.85,0,0,1,.39,4.15c-1.09,2.6-2.9,2.06-2.9,2.06s1.74,1.68-.39,3.92-4.8-1.84-4.8-1.84Z" transform="translate(0 -11.63)"/><path class="cls-16" d="M404.43,125.94s2.74-2.1,3.41.75-1.42,7.85-4.56,6.27Z" transform="translate(0 -11.63)"/><path class="cls-13" d="M405.32,135.6s-1.73,7.94-10,6.11-12.38-9.49-12.6-9.85h0l.28-1.69,1.43-8.76.77-4.68s.78-8.56,9-8.34c6,.15,11.25,2.31,13.32,5.93a7.27,7.27,0,0,1,.9,4.58l-1.57,8.36-.38,2.06Z" transform="translate(0 -11.63)"/><path class="cls-5" d="M397.77,135.11a2.38,2.38,0,0,0,1.07-.06.23.23,0,0,0,.14-.3.23.23,0,0,0-.29-.14,2.39,2.39,0,0,1-1.79-.27.24.24,0,0,0-.31.1.23.23,0,0,0,.09.31A3.22,3.22,0,0,0,397.77,135.11Z" transform="translate(0 -11.63)"/><path class="cls-1" d="M402.49,130.2a19.81,19.81,0,0,1-7.73-1.87s-.05,5.06,4.09,5A3.89,3.89,0,0,0,402.49,130.2Z" transform="translate(0 -11.63)"/><path class="cls-5" d="M400,128.07a12.37,12.37,0,0,1-2-1,.34.34,0,0,1-.1-.48.35.35,0,0,1,.48-.1c1.17.76,2.51,1.32,2.75,1.16h0v-.09c-.08-3-1.47-3.61-1.49-3.61a.36.36,0,0,1-.2-.4l.6-2.63a.35.35,0,0,1,.41-.26.36.36,0,0,1,.26.42l-.54,2.37c.51.35,1.58,1.4,1.65,4.09a.72.72,0,0,1-.35.71A1.93,1.93,0,0,1,400,128.07Z" transform="translate(0 -11.63)"/><path class="cls-5" d="M397.8,119.56a1.61,1.61,0,0,0-.27-3.17c-1.59-.11-3.58,0-4.66,1.31-2,2.3,3,2.24,4.87,1.87Z" transform="translate(0 -11.63)"/><path class="cls-5" d="M402.36,121a1.49,1.49,0,0,1,1.39-2.6c1.39.48,3,1.35,3.49,2.81.85,2.68-3.34.83-4.83-.18Z" transform="translate(0 -11.63)"/><path class="cls-5" d="M386,124.25a4.94,4.94,0,0,0-3.19-3.83,6.88,6.88,0,0,1-.47-3.56c.2-1.72,0-3.44,1-5.26,0,0,2.64-3.44,10.89-3.22,6,.15,11.25,2.31,13.32,5.93a1.87,1.87,0,0,1-.52.63c-2.07,1.78-5.2.7-8.48-1.16a7.89,7.89,0,0,0-6.71-.24,1.64,1.64,0,0,1,.63,1.53,3.74,3.74,0,0,1-.46,1.64c-.33.64-.87,1.43-1.47,1.3,0,0,.85,2-.33,3.11s-1.69,1.1-1.69,1.1a2.71,2.71,0,0,1-.24,2.81C387.53,125.84,386,124.25,386,124.25Z" transform="translate(0 -11.63)"/><g class="cls-17"><path class="cls-16" d="M395.89,125.91c-.13.58-1.42.79-2.89.46s-2.56-1.05-2.43-1.63,1.42-.78,2.89-.46S396,125.33,395.89,125.91Z" transform="translate(0 -11.63)"/></g><g class="cls-17"><path class="cls-16" d="M406.5,129.31l-.65-.11c-1.47-.33-2.56-1.06-2.43-1.63s1.42-.79,2.89-.47l.57.15Z" transform="translate(0 -11.63)"/></g><path class="cls-5" d="M386,129.21c-.06.08-1.63,2.27-3.29,2.65h0l.28-1.69A5.78,5.78,0,0,0,386,129.21Z" transform="translate(0 -11.63)"/><path class="cls-13" d="M385.78,123.38s-2.24-5-5.3-2.12c-2.52,2.34-.48,10.33,3.85,8.69Z" transform="translate(0 -11.63)"/><path class="cls-1" d="M381.41,127.89a.75.75,0,1,0,.9-.57A.76.76,0,0,0,381.41,127.89Z" transform="translate(0 -11.63)"/><path class="cls-5" d="M384.18,128.57h0a.33.33,0,0,0,.36-.3,6.24,6.24,0,0,0-2.49-5.71.32.32,0,0,0-.46.09.32.32,0,0,0,.08.46h0a5.58,5.58,0,0,1,2.21,5.09A.33.33,0,0,0,384.18,128.57Z" transform="translate(0 -11.63)"/><path class="cls-5" d="M381.57,125.93a.42.42,0,0,0,.22,0h0a2.59,2.59,0,0,1,1.85-.28.34.34,0,1,0,.3-.6,3.22,3.22,0,0,0-2.45.28.33.33,0,0,0-.15.45A.35.35,0,0,0,381.57,125.93Z" transform="translate(0 -11.63)"/><path class="cls-5" d="M396.48,122.59c-.15.82-.64,1.42-1.1,1.33s-.71-.81-.56-1.64.64-1.41,1.1-1.33S396.63,121.77,396.48,122.59Z" transform="translate(0 -11.63)"/><path class="cls-5" d="M404.61,124.08c-.15.82-.65,1.42-1.11,1.34s-.71-.82-.56-1.64.65-1.42,1.11-1.34S404.76,123.26,404.61,124.08Z" transform="translate(0 -11.63)"/><path class="cls-11" d="M377.05,142.62s11.65,5.12,13.93,5.09a14.1,14.1,0,0,1-7.67,3.24c-6.16.61-16.56-.73-16.56-.73A15,15,0,0,1,377.05,142.62Z" transform="translate(0 -11.63)"/><path class="cls-11" d="M396.46,141.73s0,4.78-5.48,6c0,0,1,3.57,5.71,2.91a13.36,13.36,0,0,0,7.29-3.35S400.16,141.73,396.46,141.73Z" transform="translate(0 -11.63)"/><path class="cls-10" d="M382.18,238.48s-18.54,3.16-31.3-4.37c-7.24-4.28-12.61-12-11.68-25.71,0-.21,0-.41.05-.62,3-37,22.1-53.75,22.1-53.75,7.15-1.85,15.11.05,4.07,47.15-3.23,19.11,15.19,20.68,15.19,20.68Z" transform="translate(0 -11.63)"/><path class="cls-11" d="M365.05,205.55l-.18,0a.57.57,0,0,1-.37-.73c.07-.23,7.43-23,7.55-35.06a.59.59,0,0,1,1.17,0c-.13,12.21-7.54,35.17-7.62,35.4A.59.59,0,0,1,365.05,205.55Z" transform="translate(0 -11.63)"/><path class="cls-11" d="M371.69,179.31a.64.64,0,0,1-.3-.08.58.58,0,0,1-.19-.8l3.39-5.51a.58.58,0,0,1,.8-.19.58.58,0,0,1,.19.8L372.19,179A.6.6,0,0,1,371.69,179.31Z" transform="translate(0 -11.63)"/><path class="cls-11" d="M378.25,239.72a.59.59,0,0,1-.54-.35c-2.13-5-1.64-19.1-1.62-19.7a.58.58,0,1,1,1.16,0c0,.15-.5,14.44,1.53,19.2a.57.57,0,0,1-.3.76A.5.5,0,0,1,378.25,239.72Z" transform="translate(0 -11.63)"/><path class="cls-11" d="M382.35,239a35.11,35.11,0,0,1-9.49,1.24,34.31,34.31,0,0,1-9.18-1.22c-.07-.35-.14-.71-.2-1.08a.58.58,0,0,1,.45-.06,35.79,35.79,0,0,0,18.08,0,.57.57,0,0,1,.72.38A.58.58,0,0,1,382.35,239Z" transform="translate(0 -11.63)"/><path class="cls-11" d="M376.94,220.28l-.74,0c-2.49-.16-6.11-1.25-9.21-5.54a.58.58,0,0,1,.95-.68c5.4,7.48,12.46,4.48,12.53,4.45a.58.58,0,0,1,.77.3.57.57,0,0,1-.3.76A10.44,10.44,0,0,1,376.94,220.28Z" transform="translate(0 -11.63)"/><path class="cls-11" d="M350.88,234.11c-7.24-4.28-12.61-12-11.68-25.71C344.3,214,352.5,224.79,350.88,234.11Z" transform="translate(0 -11.63)"/><rect class="cls-7" x="438.54" y="110.15" width="32.26" height="26.86" rx="0.92"/><path class="cls-7" d="M461.36,147.56l2.83,5.66a.29.29,0,0,0,.53,0l1.84-5.62Z" transform="translate(0 -11.63)"/><path class="cls-1" d="M461.12,140h-.05l-16.39-2.77a.25.25,0,0,1-.21-.21l-1.07-7.08a.26.26,0,0,1,.24-.29h19.53a.23.23,0,0,1,.19.1.21.21,0,0,1,.05.2l-2.05,9.85A.25.25,0,0,1,461.12,140Zm-16.19-3.23,16,2.7,1.95-9.32H443.93Z" transform="translate(0 -11.63)"/><path class="cls-1" d="M462.48,133h0L444,132.42a.19.19,0,0,1-.2-.21.2.2,0,0,1,.21-.2l18.44.54a.21.21,0,0,1,.2.21A.22.22,0,0,1,462.48,133Z" transform="translate(0 -11.63)"/><path class="cls-1" d="M461.64,136.44h0l-17.27-1.68a.21.21,0,0,1-.18-.23.2.2,0,0,1,.22-.18L461.66,136a.22.22,0,0,1,.19.23A.2.2,0,0,1,461.64,136.44Z" transform="translate(0 -11.63)"/><path class="cls-1" d="M463.17,130.1h-.05a.25.25,0,0,1-.19-.29l.78-3.45a.25.25,0,0,1,.24-.2h3.29a.25.25,0,0,1,0,.5h-3.09l-.74,3.26A.24.24,0,0,1,463.17,130.1Z" transform="translate(0 -11.63)"/><rect class="cls-1" x="465.21" y="114.13" width="3.64" height="1.3" rx="0.51"/><path class="cls-1" d="M460.58,142.32H445.51a.25.25,0,0,1,0-.49h14.87l.49-2.18a.25.25,0,1,1,.49.11l-.54,2.37A.24.24,0,0,1,460.58,142.32Z" transform="translate(0 -11.63)"/><path class="cls-1" d="M450.51,144.78a1.34,1.34,0,1,1,1.33-1.34A1.34,1.34,0,0,1,450.51,144.78Zm0-2.25a.92.92,0,1,0,.91.91A.91.91,0,0,0,450.51,142.53Z" transform="translate(0 -11.63)"/><path class="cls-1" d="M456,144.78a1.34,1.34,0,1,1,1.33-1.34A1.34,1.34,0,0,1,456,144.78Zm0-2.25a.92.92,0,1,0,.91.91A.91.91,0,0,0,456,142.53Z" transform="translate(0 -11.63)"/><path class="cls-5" d="M496,389.2h0a.68.68,0,0,1-.66-.72A71.48,71.48,0,0,1,496.63,378c1.6-7.68,4.28-11.57,7.95-11.57s6.28,3.9,7.74,11.58a71.21,71.21,0,0,1,1.09,10.44.68.68,0,0,1-.68.71h0a.69.69,0,0,1-.69-.67c-.15-6.35-1.71-20.68-7.46-20.68s-7.59,14.34-7.86,20.7A.69.69,0,0,1,496,389.2Z" transform="translate(0 -11.63)"/><polygon class="cls-14" points="528.17 430.44 478.35 430.44 485.21 374.99 521.31 374.99 528.17 430.44"/><polygon class="cls-12" points="525.65 430.44 475.83 430.44 482.69 374.99 518.79 374.99 525.65 430.44"/><polygon class="cls-14" points="500.74 412.19 507.91 415.96 506.54 407.98 512.34 402.32 504.32 401.16 500.74 393.89 497.15 401.16 489.14 402.32 494.94 407.98 493.57 415.96 500.74 412.19"/><circle class="cls-14" cx="492.81" cy="377.77" r="1.7"/><circle class="cls-14" cx="510.22" cy="377.77" r="1.7"/><path class="cls-5" d="M492.85,389.2h0a.71.71,0,0,1-.69-.74,75.39,75.39,0,0,1,1.33-10.8c1.65-7.94,4.42-12,8.22-12s6.49,4,8,12a73.28,73.28,0,0,1,1.13,10.8.7.7,0,0,1-.7.73h0a.71.71,0,0,1-.72-.69c-.16-6.57-1.77-21.39-7.71-21.39s-7.85,14.83-8.13,21.4A.71.71,0,0,1,492.85,389.2Z" transform="translate(0 -11.63)"/><path class="cls-5" d="M457,382h0a.77.77,0,0,1-.75-.82,80.64,80.64,0,0,1,1.46-11.86c1.81-8.72,4.85-13.14,9-13.14s7.14,4.43,8.8,13.16a81.77,81.77,0,0,1,1.24,11.86.78.78,0,0,1-.78.8h0a.78.78,0,0,1-.78-.76c-.18-7.21-2-23.49-8.48-23.49s-8.62,16.29-8.93,23.51A.77.77,0,0,1,457,382Z" transform="translate(0 -11.63)"/><polygon class="cls-8" points="493.47 430.44 436.89 430.44 444.68 367.46 485.68 367.46 493.47 430.44"/><polygon class="cls-7" points="490.61 430.44 434.02 430.44 441.82 367.46 482.82 367.46 490.61 430.44"/><path class="cls-8" d="M464.12,426H464a13.21,13.21,0,0,1-13.17-13.23v-.1A13.22,13.22,0,0,1,464,399.48h.13a13.21,13.21,0,0,1,13.16,13.23v.1A13.2,13.2,0,0,1,464.12,426Zm0-.91h0a12.29,12.29,0,0,0,12.29-12.26v-.1a12.29,12.29,0,0,0-12.26-12.32H464a12.31,12.31,0,0,0-12.3,12.26v.1A12.29,12.29,0,0,0,464,425.07Z" transform="translate(0 -11.63)"/><path class="cls-8" d="M464.3,421.52h0a.46.46,0,0,1-.31-.13L457.59,415a5.28,5.28,0,0,1,0-7.45,3.85,3.85,0,0,1,3.12-1.18,5.39,5.39,0,0,1,3.59,2.27,5.38,5.38,0,0,1,3.61-2.25,3.83,3.83,0,0,1,3.12,1.19,5.28,5.28,0,0,1,0,7.45l-6.42,6.39A.44.44,0,0,1,464.3,421.52Z" transform="translate(0 -11.63)"/><circle class="cls-8" cx="453.31" cy="370.62" r="1.93"/><path class="cls-8" d="M475,382.25a1.93,1.93,0,1,1-1.93-1.94A1.93,1.93,0,0,1,475,382.25Z" transform="translate(0 -11.63)"/><path class="cls-5" d="M453.36,382h0a.79.79,0,0,1-.78-.84,83.56,83.56,0,0,1,1.51-12.27c1.88-9,5-13.59,9.33-13.59s7.38,4.58,9.09,13.61a84.9,84.9,0,0,1,1.29,12.26.81.81,0,0,1-.8.83h0a.8.8,0,0,1-.82-.78c-.18-7.47-2-24.3-8.76-24.3s-8.91,16.85-9.23,24.31A.81.81,0,0,1,453.36,382Z" transform="translate(0 -11.63)"/><path class="cls-3" d="M688.83,136.19h0l-4-.11a.41.41,0,0,1-.24-.11.35.35,0,0,1-.1-.26l.08-2.68a19.74,19.74,0,0,1-4.82-1.1,11.61,11.61,0,0,1-2.26-1.12.34.34,0,0,1-.12-.44l2.29-4.82a.37.37,0,0,1,.22-.19.36.36,0,0,1,.29,0,13.24,13.24,0,0,0,4,1.62,11.52,11.52,0,0,0,2.38.33,5,5,0,0,0,1.87-.2c.33-.14.38-.31.38-.47,0-.57-1.2-.91-2.56-1.24l-.48-.12a17.39,17.39,0,0,1-4.77-1.63,5.73,5.73,0,0,1-2.35-2.33,5.84,5.84,0,0,1-.6-2.88c.1-3.55,2.84-6.08,7.18-6.67l.08-2.79a.32.32,0,0,1,.11-.24.35.35,0,0,1,.25-.1l4,.11a.35.35,0,0,1,.34.37l-.07,2.72a19.38,19.38,0,0,1,1.93.37,13.75,13.75,0,0,1,3.61,1.44.36.36,0,0,1,.14.45l-2.16,4.8a.36.36,0,0,1-.21.19.35.35,0,0,1-.28,0l-.39-.21a11.7,11.7,0,0,0-5-1.38h-.32c-.88,0-1.91.16-1.93.83,0,.11,0,.24.27.41a9.23,9.23,0,0,0,2.72.86c.77.18,1.64.38,2.5.64,1.58.5,3.8,1.39,4.78,3.48h0a5.84,5.84,0,0,1,.5,2.65c-.1,3.4-2.7,5.92-6.81,6.61l-.08,2.86a.32.32,0,0,1-.11.24A.33.33,0,0,1,688.83,136.19Zm-3.65-.81,3.3.1.08-2.8a.36.36,0,0,1,.3-.34c4-.58,6.41-2.81,6.51-6a5.24,5.24,0,0,0-.44-2.33h0c-.65-1.4-2-2.39-4.35-3.1-.83-.26-1.69-.46-2.45-.63a9.69,9.69,0,0,1-3-1,1.18,1.18,0,0,1-.57-1c0-.69.49-1.51,2.63-1.53h.36a12.19,12.19,0,0,1,5.24,1.46l.07,0,1.87-4.17a12.75,12.75,0,0,0-3.14-1.2,16.34,16.34,0,0,0-2.17-.41.35.35,0,0,1-.31-.36l.08-2.68-3.3-.1-.08,2.75a.35.35,0,0,1-.31.34c-4.2.46-6.77,2.72-6.86,6a5.06,5.06,0,0,0,.53,2.54,5,5,0,0,0,2.07,2,17.23,17.23,0,0,0,4.58,1.56l.49.11c1.47.36,3.13.76,3.1,2a1.19,1.19,0,0,1-.82,1.1,5.42,5.42,0,0,1-2.16.25,12.77,12.77,0,0,1-2.52-.34,14.3,14.3,0,0,1-3.83-1.51l-2,4.19a11.12,11.12,0,0,0,1.86.88,19.51,19.51,0,0,0,5,1.09.37.37,0,0,1,.32.36Z" transform="translate(0 -11.63)"/><path class="cls-3" d="M494.66,99.61h0a.41.41,0,0,0,.41.41h99.62a.41.41,0,0,0,.41-.41h0a.4.4,0,0,0-.41-.4H495.07A.41.41,0,0,0,494.66,99.61Z" transform="translate(0 -11.63)"/><path class="cls-3" d="M366.88,281a.4.4,0,0,0-.4-.4H332.71a.4.4,0,1,0,0,.8h33.79a.4.4,0,0,0,.4-.4Z" transform="translate(0 -11.63)"/><path class="cls-3" d="M349.5,135.84a.32.32,0,0,1-.16,0l-5.4-2.39a12.62,12.62,0,0,1-4.79.94H339a12.62,12.62,0,0,1-12.58-12.64v-.1A12.62,12.62,0,0,1,339.05,109h.12a12.62,12.62,0,0,1,12.58,12.64v.1h0a12.4,12.4,0,0,1-2.81,7.91l.93,5.72a.37.37,0,0,1-.14.36A.4.4,0,0,1,349.5,135.84Zm-5.56-3.22a.37.37,0,0,1,.15,0l4.92,2.18-.85-5.2a.36.36,0,0,1,.08-.3,11.65,11.65,0,0,0,2.76-7.56v-.1a11.87,11.87,0,0,0-11.83-11.88h-.12a11.86,11.86,0,0,0-11.85,11.82v.1A11.85,11.85,0,0,0,339,133.59h.13a11.84,11.84,0,0,0,4.64-.94A.4.4,0,0,1,343.94,132.62Zm7.43-10.85h0Z" transform="translate(0 -11.63)"/><path class="cls-3" d="M339.32,130.43h0a.48.48,0,0,1-.32-.13l-6.35-6.38a5.24,5.24,0,0,1-1.52-3.71,5.18,5.18,0,0,1,1.54-3.7,3.79,3.79,0,0,1,3.11-1.17,5.34,5.34,0,0,1,3.57,2.25,5.34,5.34,0,0,1,3.59-2.24,3.87,3.87,0,0,1,3.1,1.19,5.25,5.25,0,0,1,0,7.41l-6.38,6.35A.42.42,0,0,1,339.32,130.43Zm-3.91-14.22a3,3,0,0,0-2.11.93,4.37,4.37,0,0,0,0,6.15l6,6.06,6.07-6a4.28,4.28,0,0,0,1.27-3.07h0a4.3,4.3,0,0,0-1.26-3.07,2.9,2.9,0,0,0-2.38-.93,4.84,4.84,0,0,0-3.3,2.37.44.44,0,0,1-.37.19h0a.43.43,0,0,1-.37-.2,4.8,4.8,0,0,0-3.29-2.37Z" transform="translate(0 -11.63)"/><path class="cls-3" d="M356.18,255.25a4.27,4.27,0,1,0,4.27,4.26A4.27,4.27,0,0,0,356.18,255.25Zm0,7.73a3.47,3.47,0,1,1,3.46-3.47A3.46,3.46,0,0,1,356.18,263Z" transform="translate(0 -11.63)"/><path class="cls-3" d="M703.33,144.09a4.27,4.27,0,1,0,4.27,4.27A4.28,4.28,0,0,0,703.33,144.09Zm0,7.74a3.47,3.47,0,1,1,3.46-3.47A3.47,3.47,0,0,1,703.33,151.83Z" transform="translate(0 -11.63)"/></svg>